<?xml version="1.0" encoding="UTF-8"?>
<svg version="1.1" xmlns="http://www.w3.org/2000/svg" width="192" height="192">
<path d="M0 0 C1.12612701 -0.00671722 2.25225403 -0.01343445 3.4125061 -0.02035522 C7.12490282 -0.03930932 10.83711849 -0.04325814 14.54956055 -0.04541016 C17.13876926 -0.05183978 19.72797725 -0.05856827 22.31718445 -0.06558228 C27.74158726 -0.07754853 33.16591865 -0.08134962 38.59033203 -0.08007812 C44.83940115 -0.07887765 51.08812439 -0.0999683 57.33710605 -0.13156545 C63.37219962 -0.16098177 69.40710696 -0.16805119 75.44228172 -0.16685867 C77.99903971 -0.16921274 80.55580049 -0.1780252 83.11251259 -0.19352341 C86.69508873 -0.21320726 90.27678345 -0.20733494 93.859375 -0.1953125 C94.90646133 -0.20655151 95.95354767 -0.21779053 97.03236389 -0.22937012 C106.94616812 -0.14520069 114.71189129 2.66643365 121.9362793 9.49755859 C129.23960138 17.2573383 129.92399778 24.75043198 129.93017578 34.92041016 C129.9384993 36.08540543 129.94682281 37.2504007 129.95539856 38.45069885 C129.97947477 42.29838412 129.98826817 46.14589975 129.99487305 49.99365234 C130.00157373 51.99621612 130.00827678 53.9987799 130.01530796 56.00134254 C130.03674988 62.29777697 130.04610909 68.59415759 130.04931641 74.890625 C130.05294775 81.36524633 130.08282059 87.83939251 130.12472099 94.31386876 C130.15952682 99.88948775 130.17486663 105.46495006 130.17556244 111.04067683 C130.1763519 114.36331511 130.18733874 117.68536223 130.2135601 121.00791168 C130.24052285 124.72004634 130.23563262 128.43088265 130.22314453 132.14306641 C130.24539597 133.77215691 130.24539597 133.77215691 130.26809692 135.43415833 C130.18696746 143.93618336 127.757898 150.07348145 122.7019043 156.87646484 C122.09862305 157.46685547 121.4953418 158.05724609 120.8737793 158.66552734 C120.28081055 159.27138672 119.6878418 159.87724609 119.0769043 160.50146484 C111.62763178 165.93421454 104.69001931 166.87566477 95.63745117 166.80810547 C93.88689171 166.81861938 93.88689171 166.81861938 92.10096741 166.8293457 C88.26457535 166.84687089 84.42892814 166.83532147 80.5925293 166.82177734 C77.91409396 166.82447381 75.23568077 166.8283521 72.55725098 166.83337402 C66.95222997 166.84063103 61.34742046 166.83111428 55.74243164 166.81201172 C49.28196304 166.79024646 42.82199955 166.79729924 36.36154318 166.81931734 C30.79349522 166.83752727 25.22559845 166.84000252 19.65753031 166.82956266 C16.34124544 166.82335822 13.02524711 166.82400074 9.70896912 166.83570862 C6.00900483 166.84590548 2.31000051 166.83032714 -1.38989258 166.80810547 C-3.01730629 166.82025085 -3.01730629 166.82025085 -4.67759705 166.8326416 C-14.29759091 166.72599876 -21.50410001 163.89914387 -28.58325195 157.35693359 C-33.71945708 151.43742921 -36.48366672 144.26440317 -36.52339172 136.47972107 C-36.53054703 135.5140773 -36.53770233 134.54843353 -36.54507446 133.55352783 C-36.54776337 132.50050476 -36.55045227 131.44748169 -36.55322266 130.36254883 C-36.55979385 129.24821976 -36.56636505 128.13389069 -36.57313538 126.98579407 C-36.59286035 123.29440238 -36.60453067 119.60305141 -36.61450195 115.91162109 C-36.61857748 114.64924181 -36.62265301 113.38686253 -36.62685204 112.08622932 C-36.64556154 106.09065218 -36.66012604 100.09509961 -36.668464 94.09950107 C-36.67821708 87.20183406 -36.70448861 80.3044896 -36.7449649 73.40693611 C-36.7789064 67.41511874 -36.79062082 61.42345639 -36.7946682 55.43153572 C-36.79952723 52.89234293 -36.81112156 50.3531534 -36.82970619 47.81402397 C-36.85416258 44.25051409 -36.85311993 40.68783642 -36.84619141 37.12426758 C-36.85900146 36.08541412 -36.87181152 35.04656067 -36.88500977 33.97622681 C-36.8192083 24.63847838 -34.66812598 15.71143288 -28.07543945 8.78662109 C-19.50443607 1.24019742 -11.08051552 -0.00953614 0 0 Z " fill="#EA9B47" transform="translate(49.376220703125,12.70947265625)"/>
<path d="M0 0 C12.49553334 5.61985042 21.63925128 13.31999133 26.9765625 26.1796875 C28.90540056 31.58984303 29.87463231 36.71788754 30.1875 42.4375 C30.61440318 47.0528872 32.6264571 49.59800509 35.50390625 53.1171875 C39.09950786 57.52596331 39.37718476 61.91462292 39.25390625 67.4375 C38.63891689 72.17519577 36.22196919 74.83353849 32.625 77.75 C29.26362427 79.15708751 26.54515422 79.08721495 22.9375 78.875 C22.73125 79.7 22.525 80.525 22.3125 81.375 C20.79942174 85.22647192 18.8176189 87.80251385 16.1796875 90.9453125 C14.5766509 93.05307527 14.5766509 93.05307527 14.9375 96.875 C16.59997014 98.87848966 18.26682867 100.87834402 19.9375 102.875 C20.1025 103.7825 20.2675 104.69 20.4375 105.625 C20.6025 106.3675 20.7675 107.11 20.9375 107.875 C22.59651165 108.5604944 24.26467885 109.2239304 25.9375 109.875 C27.47701957 110.94528244 28.97789454 112.07306461 30.4375 113.25 C31.60345703 114.18585938 31.60345703 114.18585938 32.79296875 115.140625 C33.50066406 115.71296875 34.20835937 116.2853125 34.9375 116.875 C35.865625 117.57625 36.79375 118.2775 37.75 119 C40.21489088 121.11276361 42.1198074 123.18212208 43.9375 125.875 C43.9375 127.195 43.9375 128.515 43.9375 129.875 C37.96764607 132.98096502 33.07709626 133.28999017 26.41235352 133.21557617 C25.37745285 133.21601425 24.34255219 133.21645233 23.27629089 133.21690369 C19.87280073 133.2148221 16.46980983 133.19152023 13.06640625 133.16796875 C10.69986744 133.16237057 8.33332515 133.15810152 5.96678162 133.15510559 C-0.24915232 133.14367438 -6.46487456 133.11422176 -12.6807251 133.08099365 C-19.0286574 133.05025576 -25.37662404 133.03659229 -31.72460938 133.02148438 C-44.17066571 132.98935063 -56.61656522 132.93817491 -69.0625 132.875 C-66.78411179 120.7562343 -58.62341532 111.25457647 -51.0625 101.875 C-52.279375 101.648125 -53.49625 101.42125 -54.75 101.1875 C-59.04774908 100.11496439 -61.24260228 98.35840306 -64.0625 94.875 C-64.330625 94.1325 -64.59875 93.39 -64.875 92.625 C-65.266875 92.0475 -65.65875 91.47 -66.0625 90.875 C-67.98465748 90.60987483 -69.91009663 90.35645028 -71.84375 90.1953125 C-78.18688401 89.27957836 -83.08326167 85.68849616 -87 80.75 C-88.71954302 77.71551232 -88.59120646 75.24550371 -88.0625 71.875 C-85.33654425 69.14904425 -83.55338293 69.51494507 -79.75 69.3125 C-75.75400862 69.0892348 -71.96880531 68.76179727 -68.0625 67.875 C-68.07410156 66.85019531 -68.08570312 65.82539062 -68.09765625 64.76953125 C-68.10704022 63.408856 -68.11613977 62.04817876 -68.125 60.6875 C-68.13337891 60.01396484 -68.14175781 59.34042969 -68.15039062 58.64648438 C-68.16856538 54.92065869 -67.95549392 51.4961958 -67.0625 47.875 C-68.073125 47.936875 -69.08375 47.99875 -70.125 48.0625 C-74.61749372 47.84857173 -77.07335961 46.82886468 -81.0625 44.875 C-80.95703125 42.60546875 -80.95703125 42.60546875 -80.0625 39.875 C-77.26171875 37.98828125 -77.26171875 37.98828125 -73.75 36.1875 C-68.15299731 33.07980727 -65.70430785 30.47636396 -63.859375 24.3203125 C-61.10374529 15.86431152 -52.81010332 8.60723895 -45.3203125 4.296875 C-39.82295939 1.64718126 -35.10590408 0.40512316 -29.0625 -0.125 C-28.50304687 -0.45242187 -27.94359375 -0.77984375 -27.3671875 -1.1171875 C-19.59397116 -4.51632278 -7.69512426 -2.82882227 0 0 Z " fill="#0D0A06" transform="translate(120.0625,46.125)"/>
<path d="M0 0 C5.87933665 6.79521321 6.29253297 15.00761183 6.375 23.625 C6.39566528 24.82394897 6.39566528 24.82394897 6.41674805 26.04711914 C6.33543704 36.55792195 2.03224678 43.72273746 -5.0859375 51.1875 C-16.33022807 61.94615676 -32.68503278 72.65851151 -48.625 72.46875 C-51.49388256 71.90252318 -52.93387967 71.06138153 -55 69 C-55.25 65.3125 -55.25 65.3125 -55 62 C-54.27296875 61.85304687 -53.5459375 61.70609375 -52.796875 61.5546875 C-42.96644641 59.36174574 -33.03485048 56.53108408 -27 48 C-25.73762269 45.47524538 -25.90143596 43.68799534 -25.9375 40.875 C-25.94652344 39.96492188 -25.95554688 39.05484375 -25.96484375 38.1171875 C-25.97644531 37.41851562 -25.98804688 36.71984375 -26 36 C-26.556875 35.78085938 -27.11375 35.56171875 -27.6875 35.3359375 C-35.23827888 32.19828276 -40.93520903 27.93388253 -46.875 22.375 C-52.07054711 17.78050638 -58.18923664 15.01967587 -65.125 14.3125 C-69.9473817 15.16808385 -72.01343291 17.09544068 -75.43359375 20.46875 C-77 22 -77 22 -78 22 C-78.20866177 16.88778661 -77.48686403 12.87621156 -76 8 C-75.01418945 7.98541748 -74.02837891 7.97083496 -73.01269531 7.95581055 C-54.4147398 7.65927657 -15.1795478 -4.81302735 0 0 Z " fill="#F3F3F3" transform="translate(134,87)"/>
<path d="M0 0 C3.52602379 3.52602379 4.33575144 6.14897264 5 11 C-1.00943136 15.45908666 -7.25096175 19.44503261 -13.6875 23.25 C-14.39962646 23.67394043 -15.11175293 24.09788086 -15.84545898 24.53466797 C-20.1263838 27.03953311 -24.4000754 29.1431497 -29 31 C-22.50112488 31.45441635 -18.82521879 30.42618115 -13.3125 27.0625 C-12.28310303 26.46538208 -12.28310303 26.46538208 -11.23291016 25.85620117 C-7.79918553 23.82891428 -4.50032398 21.68689605 -1.28515625 19.328125 C-0.4192688 18.69571899 -0.4192688 18.69571899 0.46411133 18.05053711 C2.03864929 16.87686638 3.58665906 15.66785011 5.1328125 14.45703125 C8 13 8 13 10.97265625 13.421875 C14.62970366 15.32825842 17.34597129 17.60396635 20.3125 20.4375 C20.84939453 20.92798828 21.38628906 21.41847656 21.93945312 21.92382812 C24.42296113 24.24448315 25.9092488 25.72774641 27 29 C28.65 29 30.3 29 32 29 C28.21668145 32.00056299 25.43660483 33.12596048 20.61506653 33.12025452 C19.27103004 33.12231651 19.27103004 33.12231651 17.89984131 33.12442017 C16.91944885 33.12082489 15.9390564 33.11722961 14.92895508 33.11352539 C13.89463852 33.11367142 12.86032196 33.11381744 11.79466248 33.1139679 C8.36959754 33.1132702 4.94458671 33.10548446 1.51953125 33.09765625 C-0.85272695 33.09579156 -3.22498554 33.0943679 -5.59724426 33.09336853 C-11.84602926 33.08954736 -18.09479107 33.07972045 -24.34356689 33.06866455 C-30.7179737 33.05844186 -37.09238424 33.05386907 -43.46679688 33.04882812 C-55.97787448 33.03809786 -68.48893601 33.02121797 -81 33 C-80.67 32.01 -80.34 31.02 -80 30 C-80 30.66 -80 31.32 -80 32 C-78.68 32 -77.36 32 -76 32 C-75.731875 31.13375 -75.46375 30.2675 -75.1875 29.375 C-74.02888013 26.08208036 -72.61790161 23.08872125 -71 20 C-70.34 20 -69.68 20 -69 20 C-67.5625 21.8984375 -67.5625 21.8984375 -66 24.375 C-64.42887516 26.84952162 -63.07616959 28.92383041 -61 31 C-58.41645782 31.16687448 -58.41645782 31.16687448 -56 31 C-56.47050781 30.56429687 -56.94101563 30.12859375 -57.42578125 29.6796875 C-61.1583456 26.10940855 -64.3311865 23.00644051 -66 18 C-66.06426908 14.40093139 -65.86517726 12.08744655 -63.5859375 9.22265625 C-62.12180403 7.74811425 -60.56589419 6.3659928 -59 5 C-58.01 5.33 -57.02 5.66 -56 6 C-55.97421875 7.134375 -55.9484375 8.26875 -55.921875 9.4375 C-55.60640397 20.78496484 -55.60640397 20.78496484 -51 31 C-47.42608591 31.83727271 -44.56728789 31.93121973 -41 31 C-37.32690655 27.86722015 -34.38539763 24.27197339 -31.32177734 20.55566406 C-25.71126817 13.95238286 -18.65480225 8.8519702 -11.625 3.875 C-10.93446533 3.37669678 -10.24393066 2.87839355 -9.5324707 2.36499023 C-8.54573364 1.68545288 -8.54573364 1.68545288 -7.5390625 0.9921875 C-6.95334473 0.58339355 -6.36762695 0.17459961 -5.76416016 -0.24658203 C-3.43045052 -1.24323688 -2.32946115 -0.92572774 0 0 Z " fill="#8E6342" transform="translate(132,146)"/>
<path d="M0 0 C5.54145873 2.56170163 10.07658502 5.95123101 14.5 10.125 C18.36571013 13.73529714 22.05344149 15.59555162 27.03125 17.30859375 C29 18 29 18 30 19 C30.49895989 23.24115904 30.34301332 25.42831114 28.125 29.125 C24.50767935 32.97935306 19.78291706 34.93906826 15 37 C14.05125 37.433125 13.1025 37.86625 12.125 38.3125 C4.206519 40.05456582 -4.73202172 39.95990745 -12 36 C-12.66 35.01 -13.32 34.02 -14 33 C-13.41621582 32.98541748 -12.83243164 32.97083496 -12.23095703 32.95581055 C-9.52838041 32.88030915 -6.82690536 32.78399662 -4.125 32.6875 C-3.2071875 32.66494141 -2.289375 32.64238281 -1.34375 32.61914062 C8.11214572 32.25289114 15.99306424 30.04785081 24 25 C24 24.34 24 23.68 24 23 C20.31642885 23.78757869 17.38977591 25.28226829 14.09765625 27.0625 C2.64147109 32.18258276 -16.50992088 30.30028109 -28 26 C-32.11452572 23.9754961 -36.08681533 21.6017556 -39 18 C-39 16.68 -39 15.36 -39 14 C-37.83984375 13.96132812 -37.83984375 13.96132812 -36.65625 13.921875 C-25.13023175 13.29422054 -19.75300807 10.30328908 -11.8828125 1.92578125 C-8.23375909 -1.80654931 -4.78642549 -1.27851098 0 0 Z " fill="#E6782A" transform="translate(75,106)"/>
<path d="M0 0 C6.08214054 4.42337494 10.44972755 9.82856237 12.75 17 C12.79087274 18.66616542 12.7982478 20.33403183 12.75 22 C12.20504883 21.93071289 11.66009766 21.86142578 11.09863281 21.79003906 C3.90655123 20.96616017 -3.24405837 20.78080538 -10.47998047 20.75976562 C-12.48286885 20.75008282 -14.48561535 20.7188836 -16.48828125 20.6875 C-25.53162757 20.6518612 -33.50437105 21.74295368 -42.25 24 C-39.20896158 14.57205893 -33.67753034 8.24232202 -25.25 3 C-17.13624729 -1.07490692 -8.81097352 -2.71106877 0 0 Z " fill="#875833" transform="translate(102.25,52)"/>
<path d="M0 0 C1.1859375 0.28617187 2.371875 0.57234375 3.59375 0.8671875 C6.4021796 1.5561714 9.20315966 2.2656341 12 3 C12 3.66 12 4.32 12 5 C-3.95873575 10.66726346 -19.82768401 11.28949135 -36.625 11.3125 C-37.87233414 11.31774185 -37.87233414 11.31774185 -39.14486694 11.3230896 C-48.01010114 11.34373309 -56.35296214 11.20122363 -65 9 C-50.18400307 -7.34270387 -19.36257688 -4.84064422 0 0 Z " fill="#865733" transform="translate(113,79)"/>
<path d="M0 0 C2.78655917 1.5790502 4.14462481 3.37743505 5.875 6.0625 C6.25944849 8.05330649 6.59993029 10.0536576 6.875 12.0625 C-22.8420794 34.11301101 -22.8420794 34.11301101 -39.125 33.0625 C-30.77696974 20.91374052 -20.10375633 12.36184978 -8.125 4.0625 C-7.55990723 3.66458252 -6.99481445 3.26666504 -6.41259766 2.85668945 C-2.37796799 0.06994024 -2.37796799 0.06994024 0 0 Z " fill="#793E17" transform="translate(130.125,144.9375)"/>
<path d="M0 0 C10.19799971 0.17582758 19.99910657 4.80568223 27.5 11.6875 C34.60957019 19.6074083 37.95835957 28.42333149 38 39 C37.02160156 38.46890625 36.04320312 37.9378125 35.03515625 37.390625 C34.40391846 37.05071533 33.77268066 36.71080566 33.12231445 36.3605957 C31.74203061 35.61638435 30.36427396 34.86746782 28.98901367 34.11401367 C25.30674293 32.12262148 21.82211829 30.55709628 17.8125 29.3125 C14.74220194 28.02939036 14.13145183 27.30335038 12.78125 24.1875 C12.1295388 21.91702225 11.52204398 19.63343423 10.95703125 17.33984375 C9.37331825 11.81300859 6.47859575 6.83239043 1.8125 3.3828125 C0.9153125 2.69832031 0.9153125 2.69832031 0 2 C0 1.34 0 0.68 0 0 Z " fill="#763D16" transform="translate(106,49)"/>
<path d="M0 0 C0.99 0.33 1.98 0.66 3 1 C3.03867188 2.68416016 3.03867188 2.68416016 3.078125 4.40234375 C3.36403914 12.80259485 3.78293929 19.51811809 8 27 C4.06181555 26.88066108 2.10976913 25.44856197 -0.625 22.8125 C-4.50487074 18.65307525 -6.9578232 15.36190104 -7.0625 9.5 C-5.65756345 4.87197372 -3.61378392 3.1524498 0 0 Z " fill="#773E18" transform="translate(73,151)"/>
<path d="M0 0 C5.37060483 4.25424315 9.76866722 8.30600165 12 15 C12.5641791 21.20597015 12.5641791 21.20597015 10.3125 24.375 C7.79323935 26.14529127 5.99529207 26.49333368 3 27 C2.95101562 25.97261719 2.90203125 24.94523437 2.8515625 23.88671875 C2.42751605 15.78576678 1.73451699 7.94846619 0 0 Z " fill="#492B12" transform="translate(142,93)"/>
<path d="M0 0 C1.9375 0.8125 1.9375 0.8125 3.9375 2.8125 C4.50622038 9.8646327 4.50622038 9.8646327 2.4375 13.3125 C1.9425 13.8075 1.4475 14.3025 0.9375 14.8125 C-0.9375 14.5 -0.9375 14.5 -3.0625 13.8125 C-5.59560053 10.01284921 -5.66468032 7.26863438 -5.0625 2.8125 C-3.52477558 0.2752547 -2.96930283 -0.26993662 0 0 Z " fill="#0C0C0C" transform="translate(114.0625,98.1875)"/>
<path d="M0 0 C1.7325 0.1546875 1.7325 0.1546875 3.5 0.3125 C5.5 3.3125 5.5 3.3125 5.5 6.3125 C4.84 6.3125 4.18 6.3125 3.5 6.3125 C3.2525 6.93125 3.005 7.55 2.75 8.1875 C1.29371361 10.66318687 0.12187494 11.26375002 -2.5 12.3125 C-6.53448276 6.93318966 -6.53448276 6.93318966 -6.375 4.0625 C-4.69323092 0.69896184 -3.79670697 0.33899169 0 0 Z " fill="#456D1F" transform="translate(87.5,163.6875)"/>
<path d="M0 0 C0.66 0 1.32 0 2 0 C3.4375 1.86328125 3.4375 1.86328125 5 4.3125 C5.7734375 5.51326172 5.7734375 5.51326172 6.5625 6.73828125 C7.036875 7.48464844 7.51125 8.23101562 8 9 C8.99 10.485 8.99 10.485 10 12 C5.05 12 0.1 12 -5 12 C-3.54996379 7.64989137 -2.09990776 4.00891482 0 0 Z " fill="#895834" transform="translate(61,166)"/>
</svg>
