<?xml version="1.0" encoding="UTF-8"?>
<svg xmlns="http://www.w3.org/2000/svg" xmlns:xlink="http://www.w3.org/1999/xlink" width="48px" height="48px" viewBox="0 0 48 48" version="1.1">
<g id="surface1">
<path style=" stroke:none;fill-rule:nonzero;fill:rgb(91.764706%,60.784316%,27.843139%);fill-opacity:1;" d="M 12.34375 3.175781 C 12.625 3.175781 12.90625 3.175781 13.195312 3.171875 C 14.125 3.167969 15.054688 3.167969 15.980469 3.164062 C 16.628906 3.164062 17.277344 3.164062 17.921875 3.160156 C 19.28125 3.15625 20.636719 3.15625 21.992188 3.15625 C 23.554688 3.15625 25.117188 3.152344 26.679688 3.144531 C 28.1875 3.136719 29.695312 3.136719 31.203125 3.136719 C 31.84375 3.136719 32.484375 3.132812 33.121094 3.128906 C 34.019531 3.125 34.914062 3.125 35.808594 3.128906 C 36.070312 3.125 36.332031 3.121094 36.601562 3.121094 C 39.082031 3.140625 41.023438 3.84375 42.828125 5.550781 C 44.652344 7.492188 44.824219 9.363281 44.828125 11.90625 C 44.828125 12.199219 44.832031 12.488281 44.832031 12.789062 C 44.839844 13.753906 44.839844 14.714844 44.84375 15.675781 C 44.84375 16.175781 44.847656 16.675781 44.847656 17.175781 C 44.851562 18.75 44.855469 20.324219 44.855469 21.898438 C 44.855469 23.519531 44.863281 25.136719 44.875 26.753906 C 44.882812 28.148438 44.886719 29.542969 44.886719 30.9375 C 44.886719 31.769531 44.890625 32.597656 44.898438 33.429688 C 44.902344 34.355469 44.902344 35.285156 44.898438 36.214844 C 44.90625 36.621094 44.90625 36.621094 44.910156 37.035156 C 44.890625 39.160156 44.285156 40.695312 43.019531 42.394531 C 42.867188 42.542969 42.71875 42.691406 42.5625 42.84375 C 42.414062 42.996094 42.265625 43.148438 42.113281 43.300781 C 40.25 44.660156 38.515625 44.894531 36.253906 44.878906 C 35.816406 44.882812 35.816406 44.882812 35.371094 44.882812 C 34.410156 44.890625 33.453125 44.886719 32.492188 44.882812 C 31.824219 44.882812 31.152344 44.882812 30.484375 44.886719 C 29.082031 44.886719 27.679688 44.886719 26.28125 44.878906 C 24.664062 44.875 23.050781 44.875 21.433594 44.882812 C 20.042969 44.886719 18.652344 44.886719 17.257812 44.882812 C 16.429688 44.882812 15.601562 44.882812 14.769531 44.886719 C 13.847656 44.890625 12.921875 44.886719 11.996094 44.878906 C 11.589844 44.882812 11.589844 44.882812 11.175781 44.886719 C 8.769531 44.859375 6.96875 44.152344 5.199219 42.515625 C 3.914062 41.035156 3.222656 39.242188 3.214844 37.296875 C 3.210938 37.054688 3.210938 36.816406 3.207031 36.566406 C 3.207031 36.300781 3.207031 36.039062 3.207031 35.769531 C 3.203125 35.488281 3.203125 35.210938 3.199219 34.921875 C 3.195312 34 3.191406 33.078125 3.191406 32.15625 C 3.1875 31.839844 3.1875 31.523438 3.1875 31.199219 C 3.183594 29.699219 3.179688 28.199219 3.175781 26.703125 C 3.175781 24.976562 3.167969 23.253906 3.15625 21.527344 C 3.148438 20.03125 3.144531 18.535156 3.144531 17.035156 C 3.144531 16.402344 3.140625 15.765625 3.136719 15.132812 C 3.128906 14.238281 3.128906 13.347656 3.132812 12.457031 C 3.128906 12.199219 3.125 11.9375 3.121094 11.671875 C 3.140625 9.335938 3.675781 7.105469 5.324219 5.375 C 7.46875 3.488281 9.574219 3.175781 12.34375 3.175781 Z M 12.34375 3.175781 "/>
<path style=" stroke:none;fill-rule:nonzero;fill:rgb(5.098039%,3.921569%,2.352941%);fill-opacity:1;" d="M 30.015625 11.53125 C 33.140625 12.9375 35.425781 14.859375 36.757812 18.078125 C 37.242188 19.429688 37.484375 20.710938 37.5625 22.140625 C 37.667969 23.292969 38.171875 23.929688 38.890625 24.8125 C 39.789062 25.914062 39.859375 27.011719 39.828125 28.390625 C 39.675781 29.574219 39.070312 30.238281 38.171875 30.96875 C 37.332031 31.320312 36.652344 31.304688 35.75 31.25 C 35.699219 31.457031 35.648438 31.664062 35.59375 31.875 C 35.214844 32.835938 34.71875 33.480469 34.0625 34.265625 C 33.660156 34.792969 33.660156 34.792969 33.75 35.75 C 34.164062 36.25 34.582031 36.75 35 37.25 C 35.042969 37.476562 35.082031 37.703125 35.125 37.9375 C 35.167969 38.125 35.207031 38.308594 35.25 38.5 C 35.664062 38.671875 36.082031 38.835938 36.5 39 C 36.886719 39.265625 37.261719 39.550781 37.625 39.84375 C 37.917969 40.078125 37.917969 40.078125 38.214844 40.316406 C 38.390625 40.460938 38.566406 40.601562 38.75 40.75 C 38.980469 40.925781 39.214844 41.101562 39.453125 41.28125 C 40.070312 41.808594 40.546875 42.328125 41 43 C 41 43.328125 41 43.660156 41 44 C 39.507812 44.777344 38.285156 44.855469 36.617188 44.835938 C 36.359375 44.835938 36.101562 44.835938 35.835938 44.835938 C 34.984375 44.835938 34.132812 44.828125 33.28125 44.824219 C 32.691406 44.820312 32.097656 44.820312 31.507812 44.820312 C 29.953125 44.816406 28.398438 44.808594 26.84375 44.800781 C 25.257812 44.792969 23.671875 44.789062 22.085938 44.785156 C 18.972656 44.777344 15.863281 44.765625 12.75 44.75 C 13.320312 41.71875 15.359375 39.34375 17.25 37 C 16.945312 36.941406 16.640625 36.886719 16.328125 36.828125 C 15.253906 36.558594 14.703125 36.121094 14 35.25 C 13.933594 35.0625 13.867188 34.878906 13.796875 34.6875 C 13.699219 34.542969 13.601562 34.398438 13.5 34.25 C 13.019531 34.183594 12.539062 34.121094 12.054688 34.078125 C 10.46875 33.851562 9.246094 32.953125 8.265625 31.71875 C 7.835938 30.960938 7.867188 30.34375 8 29.5 C 8.679688 28.820312 9.128906 28.910156 10.078125 28.859375 C 11.078125 28.804688 12.023438 28.722656 13 28.5 C 12.996094 28.242188 12.996094 27.988281 12.992188 27.722656 C 12.988281 27.382812 12.988281 27.042969 12.984375 26.703125 C 12.980469 26.535156 12.980469 26.367188 12.976562 26.191406 C 12.972656 25.261719 13.027344 24.40625 13.25 23.5 C 12.996094 23.515625 12.746094 23.53125 12.484375 23.546875 C 11.359375 23.492188 10.746094 23.238281 9.75 22.75 C 9.777344 22.183594 9.777344 22.183594 10 21.5 C 10.699219 21.027344 10.699219 21.027344 11.578125 20.578125 C 12.976562 19.800781 13.589844 19.148438 14.050781 17.609375 C 14.738281 15.496094 16.8125 13.683594 18.6875 12.605469 C 20.058594 11.941406 21.238281 11.632812 22.75 11.5 C 22.890625 11.417969 23.03125 11.335938 23.171875 11.25 C 25.117188 10.402344 28.09375 10.824219 30.015625 11.53125 Z M 30.015625 11.53125 "/>
<path style=" stroke:none;fill-rule:nonzero;fill:rgb(95.294118%,95.294118%,95.294118%);fill-opacity:1;" d="M 33.5 21.75 C 34.96875 23.449219 35.074219 25.5 35.09375 27.65625 C 35.097656 27.957031 35.097656 27.957031 35.105469 28.261719 C 35.082031 30.890625 34.007812 32.679688 32.226562 34.546875 C 29.417969 37.238281 25.328125 39.914062 21.34375 39.867188 C 20.625 39.726562 20.265625 39.515625 19.75 39 C 19.6875 38.078125 19.6875 38.078125 19.75 37.25 C 19.933594 37.214844 20.113281 37.175781 20.300781 37.140625 C 22.757812 36.589844 25.242188 35.882812 26.75 33.75 C 27.066406 33.117188 27.023438 32.671875 27.015625 31.96875 C 27.011719 31.742188 27.011719 31.515625 27.007812 31.28125 C 27.007812 31.105469 27.003906 30.929688 27 30.75 C 26.859375 30.695312 26.722656 30.640625 26.578125 30.585938 C 24.691406 29.800781 23.265625 28.734375 21.78125 27.34375 C 20.480469 26.195312 18.953125 25.503906 17.21875 25.328125 C 16.011719 25.542969 15.496094 26.023438 14.640625 26.867188 C 14.25 27.25 14.25 27.25 14 27.25 C 13.949219 25.972656 14.128906 24.96875 14.5 23.75 C 14.746094 23.746094 14.992188 23.742188 15.246094 23.738281 C 19.894531 23.664062 29.707031 20.546875 33.5 21.75 Z M 33.5 21.75 "/>
<path style=" stroke:none;fill-rule:nonzero;fill:rgb(55.686277%,38.82353%,25.882354%);fill-opacity:1;" d="M 33 36.5 C 33.882812 37.382812 34.082031 38.039062 34.25 39.25 C 32.746094 40.363281 31.1875 41.359375 29.578125 42.3125 C 29.398438 42.417969 29.222656 42.523438 29.039062 42.632812 C 27.96875 43.261719 26.898438 43.785156 25.75 44.25 C 27.375 44.363281 28.292969 44.105469 29.671875 43.265625 C 29.929688 43.117188 29.929688 43.117188 30.191406 42.964844 C 31.050781 42.457031 31.875 41.921875 32.679688 41.332031 C 32.894531 41.175781 32.894531 41.175781 33.117188 41.011719 C 33.507812 40.71875 33.898438 40.417969 34.28125 40.113281 C 35 39.75 35 39.75 35.742188 39.855469 C 36.65625 40.332031 37.335938 40.902344 38.078125 41.609375 C 38.210938 41.730469 38.347656 41.855469 38.484375 41.980469 C 39.105469 42.5625 39.476562 42.933594 39.75 43.75 C 40.164062 43.75 40.574219 43.75 41 43.75 C 40.054688 44.5 39.359375 44.78125 38.152344 44.78125 C 37.816406 44.78125 37.816406 44.78125 37.476562 44.78125 C 37.230469 44.78125 36.984375 44.78125 36.730469 44.777344 C 36.472656 44.777344 36.214844 44.777344 35.949219 44.777344 C 35.09375 44.777344 34.234375 44.777344 33.378906 44.773438 C 32.785156 44.773438 32.195312 44.773438 31.601562 44.773438 C 30.039062 44.773438 28.476562 44.769531 26.914062 44.765625 C 25.320312 44.765625 23.726562 44.761719 22.132812 44.761719 C 19.003906 44.757812 15.878906 44.753906 12.75 44.75 C 12.832031 44.503906 12.914062 44.253906 13 44 C 13 44.164062 13 44.328125 13 44.5 C 13.328125 44.5 13.660156 44.5 14 44.5 C 14.066406 44.285156 14.132812 44.066406 14.203125 43.84375 C 14.492188 43.019531 14.84375 42.273438 15.25 41.5 C 15.414062 41.5 15.578125 41.5 15.75 41.5 C 16.109375 41.976562 16.109375 41.976562 16.5 42.59375 C 16.894531 43.210938 17.230469 43.730469 17.75 44.25 C 18.394531 44.292969 18.394531 44.292969 19 44.25 C 18.882812 44.140625 18.765625 44.03125 18.644531 43.921875 C 17.710938 43.027344 16.917969 42.25 16.5 41 C 16.484375 40.101562 16.535156 39.523438 17.101562 38.804688 C 17.46875 38.4375 17.859375 38.089844 18.25 37.75 C 18.496094 37.832031 18.746094 37.914062 19 38 C 19.007812 38.285156 19.011719 38.566406 19.019531 38.859375 C 19.097656 41.695312 19.097656 41.695312 20.25 44.25 C 21.144531 44.460938 21.859375 44.484375 22.75 44.25 C 23.667969 43.46875 24.402344 42.566406 25.167969 41.640625 C 26.570312 39.988281 28.335938 38.714844 30.09375 37.46875 C 30.265625 37.34375 30.4375 37.21875 30.617188 37.089844 C 30.863281 36.921875 30.863281 36.921875 31.117188 36.75 C 31.261719 36.644531 31.40625 36.542969 31.558594 36.4375 C 32.140625 36.1875 32.417969 36.269531 33 36.5 Z M 33 36.5 "/>
<path style=" stroke:none;fill-rule:nonzero;fill:rgb(90.196079%,47.058824%,16.470589%);fill-opacity:1;" d="M 18.75 26.5 C 20.136719 27.140625 21.269531 27.988281 22.375 29.03125 C 23.339844 29.933594 24.261719 30.398438 25.507812 30.828125 C 26 31 26 31 26.25 31.25 C 26.375 32.308594 26.335938 32.855469 25.78125 33.78125 C 24.875 34.746094 23.695312 35.234375 22.5 35.75 C 22.261719 35.859375 22.027344 35.964844 21.78125 36.078125 C 19.800781 36.511719 17.566406 36.488281 15.75 35.5 C 15.585938 35.253906 15.421875 35.003906 15.25 34.75 C 15.394531 34.746094 15.542969 34.742188 15.691406 34.738281 C 16.367188 34.71875 17.042969 34.695312 17.71875 34.671875 C 17.949219 34.667969 18.175781 34.660156 18.414062 34.65625 C 20.777344 34.5625 22.75 34.011719 24.75 32.75 C 24.75 32.585938 24.75 32.421875 24.75 32.25 C 23.828125 32.445312 23.097656 32.820312 22.273438 33.265625 C 19.410156 34.546875 14.621094 34.074219 11.75 33 C 10.722656 32.492188 9.726562 31.902344 9 31 C 9 30.671875 9 30.339844 9 30 C 9.289062 29.992188 9.289062 29.992188 9.585938 29.980469 C 12.46875 29.824219 13.8125 29.074219 15.78125 26.980469 C 16.691406 26.046875 17.554688 26.179688 18.75 26.5 Z M 18.75 26.5 "/>
<path style=" stroke:none;fill-rule:nonzero;fill:rgb(52.941179%,34.509805%,20%);fill-opacity:1;" d="M 25.5625 13 C 27.082031 14.105469 28.175781 15.457031 28.75 17.25 C 28.761719 17.667969 28.761719 18.082031 28.75 18.5 C 28.613281 18.484375 28.476562 18.464844 28.335938 18.449219 C 26.539062 18.242188 24.75 18.195312 22.941406 18.191406 C 22.441406 18.1875 21.941406 18.179688 21.441406 18.171875 C 19.179688 18.164062 17.1875 18.4375 15 19 C 15.761719 16.644531 17.144531 15.0625 19.25 13.75 C 21.277344 12.730469 23.359375 12.320312 25.5625 13 Z M 25.5625 13 "/>
<path style=" stroke:none;fill-rule:nonzero;fill:rgb(52.549022%,34.117648%,20%);fill-opacity:1;" d="M 28.25 19.75 C 28.546875 19.820312 28.84375 19.894531 29.148438 19.96875 C 29.851562 20.140625 30.550781 20.316406 31.25 20.5 C 31.25 20.664062 31.25 20.828125 31.25 21 C 27.261719 22.417969 23.292969 22.574219 19.09375 22.578125 C 18.78125 22.578125 18.78125 22.578125 18.464844 22.582031 C 16.246094 22.585938 14.160156 22.550781 12 22 C 15.703125 17.914062 23.410156 18.539062 28.25 19.75 Z M 28.25 19.75 "/>
<path style=" stroke:none;fill-rule:nonzero;fill:rgb(47.450981%,24.313726%,9.019608%);fill-opacity:1;" d="M 32.53125 36.234375 C 33.226562 36.628906 33.566406 37.078125 34 37.75 C 34.097656 38.246094 34.179688 38.746094 34.25 39.25 C 26.820312 44.761719 26.820312 44.761719 22.75 44.5 C 24.835938 41.460938 27.503906 39.324219 30.5 37.25 C 30.640625 37.152344 30.78125 37.050781 30.929688 36.949219 C 31.9375 36.25 31.9375 36.25 32.53125 36.234375 Z M 32.53125 36.234375 "/>
<path style=" stroke:none;fill-rule:nonzero;fill:rgb(46.27451%,23.921569%,8.627451%);fill-opacity:1;" d="M 26.5 12.25 C 29.050781 12.292969 31.5 13.453125 33.375 15.171875 C 35.152344 17.152344 35.988281 19.355469 36 22 C 35.753906 21.867188 35.511719 21.734375 35.257812 21.597656 C 35.101562 21.511719 34.941406 21.425781 34.78125 21.339844 C 34.433594 21.152344 34.089844 20.96875 33.746094 20.777344 C 32.828125 20.28125 31.957031 19.890625 30.953125 19.578125 C 30.1875 19.257812 30.03125 19.074219 29.695312 18.296875 C 29.53125 17.730469 29.378906 17.160156 29.238281 16.585938 C 28.84375 15.203125 28.121094 13.957031 26.953125 13.09375 C 26.730469 12.925781 26.730469 12.925781 26.5 12.75 C 26.5 12.585938 26.5 12.421875 26.5 12.25 Z M 26.5 12.25 "/>
<path style=" stroke:none;fill-rule:nonzero;fill:rgb(46.666667%,24.313726%,9.411765%);fill-opacity:1;" d="M 18.25 37.75 C 18.496094 37.832031 18.746094 37.914062 19 38 C 19.007812 38.421875 19.007812 38.421875 19.019531 38.851562 C 19.089844 40.949219 19.195312 42.628906 20.25 44.5 C 19.265625 44.46875 18.777344 44.113281 18.09375 43.453125 C 17.125 42.414062 16.511719 41.589844 16.484375 40.125 C 16.835938 38.96875 17.347656 38.539062 18.25 37.75 Z M 18.25 37.75 "/>
<path style=" stroke:none;fill-rule:nonzero;fill:rgb(28.627452%,16.862746%,7.058824%);fill-opacity:1;" d="M 35.5 23.25 C 36.84375 24.3125 37.941406 25.328125 38.5 27 C 38.640625 28.550781 38.640625 28.550781 38.078125 29.34375 C 37.449219 29.785156 37 29.875 36.25 30 C 36.238281 29.742188 36.226562 29.484375 36.210938 29.222656 C 36.105469 27.195312 35.933594 25.238281 35.5 23.25 Z M 35.5 23.25 "/>
<path style=" stroke:none;fill-rule:nonzero;fill:rgb(4.705882%,4.705882%,4.705882%);fill-opacity:1;" d="M 28.515625 24.546875 C 29 24.75 29 24.75 29.5 25.25 C 29.640625 27.011719 29.640625 27.011719 29.125 27.875 C 29 28 28.878906 28.121094 28.75 28.25 C 28.28125 28.171875 28.28125 28.171875 27.75 28 C 27.117188 27.050781 27.097656 26.363281 27.25 25.25 C 27.632812 24.617188 27.773438 24.480469 28.515625 24.546875 Z M 28.515625 24.546875 "/>
<path style=" stroke:none;fill-rule:nonzero;fill:rgb(27.058825%,42.745098%,12.156863%);fill-opacity:1;" d="M 21.875 40.921875 C 22.308594 40.960938 22.308594 40.960938 22.75 41 C 23.25 41.75 23.25 41.75 23.25 42.5 C 23.085938 42.5 22.921875 42.5 22.75 42.5 C 22.6875 42.65625 22.625 42.808594 22.5625 42.96875 C 22.199219 43.585938 21.90625 43.738281 21.25 44 C 20.242188 42.65625 20.242188 42.65625 20.28125 41.9375 C 20.703125 41.097656 20.925781 41.007812 21.875 40.921875 Z M 21.875 40.921875 "/>
<path style=" stroke:none;fill-rule:nonzero;fill:rgb(53.725493%,34.509805%,20.392157%);fill-opacity:1;" d="M 15.25 41.5 C 15.414062 41.5 15.578125 41.5 15.75 41.5 C 16.109375 41.964844 16.109375 41.964844 16.5 42.578125 C 16.695312 42.878906 16.695312 42.878906 16.890625 43.183594 C 17.007812 43.371094 17.128906 43.558594 17.25 43.75 C 17.496094 44.121094 17.496094 44.121094 17.75 44.5 C 16.511719 44.5 15.273438 44.5 14 44.5 C 14.363281 43.414062 14.726562 42.503906 15.25 41.5 Z M 15.25 41.5 "/>
</g>
</svg>
