<?xml version="1.0" encoding="UTF-8"?>
<svg xmlns="http://www.w3.org/2000/svg" xmlns:xlink="http://www.w3.org/1999/xlink" width="32px" height="32px" viewBox="0 0 32 32" version="1.1">
<g id="surface1">
<path style=" stroke:none;fill-rule:nonzero;fill:rgb(91.764706%,60.784316%,27.843139%);fill-opacity:1;" d="M 8.230469 2.117188 C 8.417969 2.117188 8.605469 2.117188 8.796875 2.113281 C 9.417969 2.113281 10.035156 2.109375 10.65625 2.109375 C 11.085938 2.109375 11.515625 2.109375 11.949219 2.105469 C 12.851562 2.105469 13.757812 2.105469 14.660156 2.105469 C 15.703125 2.105469 16.742188 2.101562 17.785156 2.097656 C 18.792969 2.089844 19.796875 2.089844 20.804688 2.089844 C 21.230469 2.089844 21.65625 2.089844 22.082031 2.085938 C 22.679688 2.082031 23.277344 2.082031 23.871094 2.085938 C 24.046875 2.082031 24.222656 2.082031 24.402344 2.078125 C 26.054688 2.09375 27.347656 2.5625 28.550781 3.699219 C 29.769531 4.996094 29.882812 6.242188 29.882812 7.9375 C 29.886719 8.132812 29.886719 8.328125 29.886719 8.527344 C 29.894531 9.167969 29.894531 9.808594 29.894531 10.449219 C 29.894531 10.785156 29.898438 11.117188 29.898438 11.453125 C 29.902344 12.5 29.902344 13.550781 29.902344 14.601562 C 29.90625 15.679688 29.910156 16.757812 29.917969 17.835938 C 29.921875 18.765625 29.925781 19.695312 29.925781 20.625 C 29.925781 21.179688 29.925781 21.734375 29.929688 22.285156 C 29.9375 22.90625 29.933594 23.523438 29.933594 24.140625 C 29.9375 24.414062 29.9375 24.414062 29.941406 24.691406 C 29.925781 26.109375 29.523438 27.128906 28.679688 28.265625 C 28.578125 28.363281 28.480469 28.460938 28.375 28.5625 C 28.277344 28.664062 28.175781 28.765625 28.074219 28.867188 C 26.832031 29.773438 25.675781 29.929688 24.167969 29.917969 C 23.878906 29.921875 23.878906 29.921875 23.578125 29.921875 C 22.941406 29.925781 22.300781 29.925781 21.660156 29.921875 C 21.214844 29.921875 20.769531 29.921875 20.320312 29.921875 C 19.386719 29.925781 18.453125 29.921875 17.519531 29.921875 C 16.441406 29.917969 15.367188 29.917969 14.289062 29.921875 C 13.363281 29.925781 12.433594 29.925781 11.503906 29.921875 C 10.953125 29.921875 10.398438 29.921875 9.847656 29.925781 C 9.230469 29.925781 8.613281 29.921875 7.996094 29.917969 C 7.726562 29.921875 7.726562 29.921875 7.449219 29.921875 C 5.847656 29.90625 4.644531 29.433594 3.464844 28.34375 C 2.609375 27.359375 2.148438 26.164062 2.140625 24.863281 C 2.140625 24.703125 2.140625 24.542969 2.136719 24.378906 C 2.136719 24.203125 2.136719 24.027344 2.136719 23.84375 C 2.136719 23.660156 2.136719 23.472656 2.132812 23.28125 C 2.128906 22.667969 2.128906 22.050781 2.128906 21.4375 C 2.125 21.226562 2.125 21.015625 2.125 20.800781 C 2.121094 19.800781 2.121094 18.800781 2.117188 17.800781 C 2.117188 16.652344 2.113281 15.503906 2.105469 14.351562 C 2.097656 13.355469 2.097656 12.355469 2.097656 11.355469 C 2.097656 10.933594 2.09375 10.511719 2.089844 10.085938 C 2.085938 9.492188 2.085938 8.898438 2.089844 8.304688 C 2.085938 8.132812 2.085938 7.960938 2.082031 7.78125 C 2.09375 6.226562 2.453125 4.738281 3.550781 3.582031 C 4.980469 2.324219 6.382812 2.117188 8.230469 2.117188 Z M 8.230469 2.117188 "/>
<path style=" stroke:none;fill-rule:nonzero;fill:rgb(5.098039%,3.921569%,2.352941%);fill-opacity:1;" d="M 20.011719 7.6875 C 22.09375 8.625 23.617188 9.90625 24.507812 12.050781 C 24.828125 12.953125 24.988281 13.808594 25.042969 14.761719 C 25.113281 15.53125 25.449219 15.953125 25.925781 16.539062 C 26.527344 17.273438 26.574219 18.007812 26.550781 18.925781 C 26.449219 19.714844 26.046875 20.160156 25.449219 20.644531 C 24.886719 20.878906 24.433594 20.867188 23.832031 20.832031 C 23.800781 20.972656 23.765625 21.109375 23.730469 21.25 C 23.476562 21.890625 23.148438 22.320312 22.707031 22.84375 C 22.441406 23.195312 22.441406 23.195312 22.5 23.832031 C 22.777344 24.167969 23.054688 24.5 23.332031 24.832031 C 23.359375 24.984375 23.386719 25.136719 23.417969 25.292969 C 23.445312 25.414062 23.472656 25.539062 23.5 25.667969 C 23.777344 25.78125 24.054688 25.890625 24.332031 26 C 24.589844 26.179688 24.839844 26.367188 25.082031 26.5625 C 25.277344 26.71875 25.277344 26.71875 25.476562 26.878906 C 25.59375 26.972656 25.710938 27.070312 25.832031 27.167969 C 25.988281 27.285156 26.144531 27.402344 26.300781 27.519531 C 26.714844 27.871094 27.03125 28.21875 27.332031 28.667969 C 27.332031 28.886719 27.332031 29.105469 27.332031 29.332031 C 26.339844 29.851562 25.523438 29.902344 24.414062 29.890625 C 24.238281 29.890625 24.066406 29.890625 23.890625 29.890625 C 23.324219 29.890625 22.753906 29.886719 22.1875 29.882812 C 21.792969 29.882812 21.398438 29.878906 21.003906 29.878906 C 19.96875 29.878906 18.933594 29.875 17.898438 29.867188 C 16.839844 29.863281 15.78125 29.859375 14.722656 29.859375 C 12.648438 29.851562 10.574219 29.84375 8.5 29.832031 C 8.878906 27.8125 10.238281 26.230469 11.5 24.667969 C 11.296875 24.628906 11.09375 24.589844 10.886719 24.550781 C 10.167969 24.375 9.804688 24.082031 9.332031 23.5 C 9.289062 23.375 9.242188 23.253906 9.199219 23.125 C 9.132812 23.027344 9.066406 22.933594 9 22.832031 C 8.679688 22.789062 8.359375 22.746094 8.035156 22.71875 C 6.980469 22.566406 6.164062 21.96875 5.511719 21.144531 C 5.222656 20.640625 5.246094 20.226562 5.332031 19.667969 C 5.789062 19.210938 6.085938 19.273438 6.71875 19.238281 C 7.382812 19.203125 8.015625 19.148438 8.667969 19 C 8.664062 18.828125 8.664062 18.660156 8.660156 18.484375 C 8.660156 18.253906 8.65625 18.027344 8.65625 17.800781 C 8.65625 17.691406 8.652344 17.578125 8.652344 17.460938 C 8.648438 16.839844 8.683594 16.269531 8.832031 15.667969 C 8.664062 15.675781 8.496094 15.6875 8.324219 15.699219 C 7.574219 15.664062 7.164062 15.492188 6.5 15.167969 C 6.515625 14.789062 6.515625 14.789062 6.667969 14.332031 C 7.132812 14.019531 7.132812 14.019531 7.71875 13.71875 C 8.652344 13.199219 9.058594 12.765625 9.367188 11.742188 C 9.828125 10.332031 11.207031 9.121094 12.457031 8.402344 C 13.375 7.960938 14.160156 7.753906 15.167969 7.667969 C 15.261719 7.613281 15.351562 7.558594 15.449219 7.5 C 16.746094 6.933594 18.726562 7.214844 20.011719 7.6875 Z M 20.011719 7.6875 "/>
<path style=" stroke:none;fill-rule:nonzero;fill:rgb(95.294118%,95.294118%,95.294118%);fill-opacity:1;" d="M 22.332031 14.5 C 23.3125 15.632812 23.382812 17 23.394531 18.4375 C 23.398438 18.636719 23.398438 18.636719 23.402344 18.839844 C 23.390625 20.59375 22.671875 21.789062 21.484375 23.03125 C 19.613281 24.824219 16.886719 26.609375 14.230469 26.578125 C 13.75 26.484375 13.511719 26.34375 13.167969 26 C 13.125 25.386719 13.125 25.386719 13.167969 24.832031 C 13.289062 24.808594 13.410156 24.785156 13.535156 24.757812 C 15.171875 24.394531 16.828125 23.921875 17.832031 22.5 C 18.042969 22.078125 18.015625 21.78125 18.011719 21.3125 C 18.007812 21.160156 18.007812 21.007812 18.007812 20.851562 C 18.003906 20.738281 18.003906 20.621094 18 20.5 C 17.90625 20.464844 17.8125 20.425781 17.71875 20.390625 C 16.460938 19.867188 15.511719 19.15625 14.519531 18.230469 C 13.65625 17.464844 12.636719 17.003906 11.480469 16.886719 C 10.675781 17.027344 10.332031 17.347656 9.761719 17.910156 C 9.5 18.167969 9.5 18.167969 9.332031 18.167969 C 9.296875 17.316406 9.417969 16.644531 9.667969 15.832031 C 9.832031 15.832031 9.996094 15.828125 10.164062 15.824219 C 13.265625 15.777344 19.804688 13.699219 22.332031 14.5 Z M 22.332031 14.5 "/>
<path style=" stroke:none;fill-rule:nonzero;fill:rgb(55.686277%,38.82353%,25.882354%);fill-opacity:1;" d="M 22 24.332031 C 22.585938 24.921875 22.722656 25.359375 22.832031 26.167969 C 21.832031 26.910156 20.792969 27.574219 19.71875 28.207031 C 19.601562 28.277344 19.480469 28.351562 19.359375 28.421875 C 18.644531 28.839844 17.933594 29.191406 17.167969 29.5 C 18.25 29.574219 18.863281 29.40625 19.78125 28.84375 C 19.953125 28.746094 19.953125 28.746094 20.128906 28.644531 C 20.699219 28.304688 21.25 27.949219 21.785156 27.554688 C 21.929688 27.449219 21.929688 27.449219 22.078125 27.339844 C 22.339844 27.144531 22.597656 26.945312 22.855469 26.742188 C 23.332031 26.5 23.332031 26.5 23.828125 26.570312 C 24.4375 26.886719 24.890625 27.265625 25.386719 27.738281 C 25.476562 27.820312 25.5625 27.902344 25.65625 27.988281 C 26.070312 28.375 26.316406 28.621094 26.5 29.167969 C 26.773438 29.167969 27.050781 29.167969 27.332031 29.167969 C 26.703125 29.667969 26.238281 29.855469 25.4375 29.851562 C 25.210938 29.855469 25.210938 29.855469 24.984375 29.855469 C 24.820312 29.851562 24.65625 29.851562 24.488281 29.851562 C 24.316406 29.851562 24.144531 29.851562 23.964844 29.851562 C 23.394531 29.851562 22.824219 29.851562 22.253906 29.851562 C 21.859375 29.847656 21.460938 29.847656 21.066406 29.847656 C 20.027344 29.847656 18.984375 29.847656 17.941406 29.84375 C 16.878906 29.84375 15.816406 29.84375 14.753906 29.839844 C 12.671875 29.839844 10.585938 29.835938 8.5 29.832031 C 8.554688 29.667969 8.609375 29.503906 8.667969 29.332031 C 8.667969 29.441406 8.667969 29.554688 8.667969 29.667969 C 8.886719 29.667969 9.105469 29.667969 9.332031 29.667969 C 9.378906 29.523438 9.421875 29.378906 9.46875 29.230469 C 9.660156 28.679688 9.898438 28.179688 10.167969 27.667969 C 10.277344 27.667969 10.386719 27.667969 10.5 27.667969 C 10.738281 27.984375 10.738281 27.984375 11 28.394531 C 11.261719 28.808594 11.488281 29.152344 11.832031 29.5 C 12.265625 29.527344 12.265625 29.527344 12.667969 29.5 C 12.589844 29.425781 12.511719 29.355469 12.429688 29.28125 C 11.808594 28.683594 11.277344 28.167969 11 27.332031 C 10.988281 26.734375 11.023438 26.347656 11.402344 25.871094 C 11.644531 25.625 11.90625 25.394531 12.167969 25.167969 C 12.332031 25.222656 12.496094 25.277344 12.667969 25.332031 C 12.671875 25.523438 12.675781 25.710938 12.679688 25.90625 C 12.730469 27.796875 12.730469 27.796875 13.5 29.5 C 14.09375 29.640625 14.570312 29.65625 15.167969 29.5 C 15.777344 28.976562 16.269531 28.378906 16.78125 27.757812 C 17.714844 26.660156 18.890625 25.808594 20.0625 24.980469 C 20.175781 24.894531 20.292969 24.8125 20.410156 24.726562 C 20.574219 24.613281 20.574219 24.613281 20.742188 24.5 C 20.839844 24.429688 20.9375 24.363281 21.039062 24.292969 C 21.429688 24.125 21.613281 24.179688 22 24.332031 Z M 22 24.332031 "/>
<path style=" stroke:none;fill-rule:nonzero;fill:rgb(90.196079%,47.058824%,16.470589%);fill-opacity:1;" d="M 12.5 17.667969 C 13.421875 18.09375 14.179688 18.660156 14.917969 19.355469 C 15.5625 19.957031 16.175781 20.265625 17.003906 20.550781 C 17.332031 20.667969 17.332031 20.667969 17.5 20.832031 C 17.582031 21.539062 17.558594 21.90625 17.1875 22.519531 C 16.585938 23.164062 15.796875 23.488281 15 23.832031 C 14.84375 23.90625 14.683594 23.976562 14.519531 24.050781 C 13.199219 24.34375 11.710938 24.328125 10.5 23.667969 C 10.390625 23.5 10.28125 23.335938 10.167969 23.167969 C 10.265625 23.164062 10.359375 23.160156 10.460938 23.160156 C 10.910156 23.148438 11.363281 23.128906 11.8125 23.113281 C 11.964844 23.109375 12.117188 23.105469 12.277344 23.101562 C 13.851562 23.042969 15.164062 22.675781 16.5 21.832031 C 16.5 21.722656 16.5 21.613281 16.5 21.5 C 15.886719 21.632812 15.398438 21.878906 14.851562 22.175781 C 12.941406 23.03125 9.75 22.714844 7.832031 22 C 7.148438 21.664062 6.484375 21.265625 6 20.667969 C 6 20.445312 6 20.226562 6 20 C 6.195312 19.992188 6.195312 19.992188 6.390625 19.988281 C 8.3125 19.882812 9.207031 19.382812 10.519531 17.988281 C 11.128906 17.367188 11.703125 17.453125 12.5 17.667969 Z M 12.5 17.667969 "/>
<path style=" stroke:none;fill-rule:nonzero;fill:rgb(52.941179%,34.509805%,20%);fill-opacity:1;" d="M 17.042969 8.667969 C 18.054688 9.402344 18.785156 10.304688 19.167969 11.5 C 19.171875 11.777344 19.175781 12.054688 19.167969 12.332031 C 19.074219 12.320312 18.984375 12.308594 18.890625 12.296875 C 17.691406 12.160156 16.5 12.128906 15.296875 12.125 C 14.960938 12.125 14.628906 12.121094 14.292969 12.113281 C 12.785156 12.109375 11.457031 12.289062 10 12.667969 C 10.507812 11.09375 11.429688 10.039062 12.832031 9.167969 C 14.1875 8.488281 15.574219 8.214844 17.042969 8.667969 Z M 17.042969 8.667969 "/>
<path style=" stroke:none;fill-rule:nonzero;fill:rgb(52.549022%,34.117648%,20%);fill-opacity:1;" d="M 18.832031 13.167969 C 19.03125 13.214844 19.230469 13.261719 19.433594 13.3125 C 19.898438 13.425781 20.367188 13.542969 20.832031 13.667969 C 20.832031 13.777344 20.832031 13.886719 20.832031 14 C 18.171875 14.945312 15.527344 15.046875 12.730469 15.050781 C 12.519531 15.054688 12.519531 15.054688 12.308594 15.054688 C 10.832031 15.058594 9.441406 15.035156 8 14.667969 C 10.46875 11.941406 15.605469 12.359375 18.832031 13.167969 Z M 18.832031 13.167969 "/>
<path style=" stroke:none;fill-rule:nonzero;fill:rgb(47.450981%,24.313726%,9.019608%);fill-opacity:1;" d="M 21.6875 24.15625 C 22.152344 24.417969 22.378906 24.71875 22.667969 25.167969 C 22.730469 25.5 22.789062 25.832031 22.832031 26.167969 C 17.878906 29.839844 17.878906 29.839844 15.167969 29.667969 C 16.558594 27.640625 18.335938 26.214844 20.332031 24.832031 C 20.425781 24.765625 20.523438 24.699219 20.617188 24.632812 C 21.292969 24.167969 21.292969 24.167969 21.6875 24.15625 Z M 21.6875 24.15625 "/>
<path style=" stroke:none;fill-rule:nonzero;fill:rgb(46.27451%,23.921569%,8.627451%);fill-opacity:1;" d="M 17.667969 8.167969 C 19.367188 8.195312 21 8.96875 22.25 10.113281 C 23.433594 11.433594 23.992188 12.902344 24 14.667969 C 23.835938 14.578125 23.675781 14.488281 23.507812 14.398438 C 23.402344 14.339844 23.296875 14.285156 23.1875 14.226562 C 22.957031 14.101562 22.726562 13.976562 22.5 13.851562 C 21.882812 13.519531 21.304688 13.257812 20.636719 13.050781 C 20.125 12.839844 20.023438 12.71875 19.796875 12.199219 C 19.6875 11.820312 19.585938 11.4375 19.492188 11.054688 C 19.230469 10.136719 18.746094 9.304688 17.96875 8.730469 C 17.820312 8.617188 17.820312 8.617188 17.667969 8.5 C 17.667969 8.390625 17.667969 8.28125 17.667969 8.167969 Z M 17.667969 8.167969 "/>
<path style=" stroke:none;fill-rule:nonzero;fill:rgb(46.666667%,24.313726%,9.411765%);fill-opacity:1;" d="M 12.167969 25.167969 C 12.332031 25.222656 12.496094 25.277344 12.667969 25.332031 C 12.671875 25.613281 12.671875 25.613281 12.679688 25.898438 C 12.726562 27.300781 12.796875 28.417969 13.5 29.667969 C 12.84375 29.648438 12.519531 29.40625 12.0625 28.96875 C 11.414062 28.277344 11.007812 27.726562 10.988281 26.75 C 11.222656 25.980469 11.5625 25.691406 12.167969 25.167969 Z M 12.167969 25.167969 "/>
<path style=" stroke:none;fill-rule:nonzero;fill:rgb(28.627452%,16.862746%,7.058824%);fill-opacity:1;" d="M 23.667969 15.5 C 24.5625 16.210938 25.292969 16.882812 25.667969 18 C 25.761719 19.035156 25.761719 19.035156 25.386719 19.5625 C 24.964844 19.859375 24.664062 19.914062 24.167969 20 C 24.160156 19.828125 24.148438 19.65625 24.140625 19.480469 C 24.070312 18.132812 23.957031 16.824219 23.667969 15.5 Z M 23.667969 15.5 "/>
<path style=" stroke:none;fill-rule:nonzero;fill:rgb(4.705882%,4.705882%,4.705882%);fill-opacity:1;" d="M 19.011719 16.363281 C 19.332031 16.5 19.332031 16.5 19.667969 16.832031 C 19.761719 18.007812 19.761719 18.007812 19.417969 18.582031 C 19.335938 18.664062 19.25 18.75 19.167969 18.832031 C 18.855469 18.78125 18.855469 18.78125 18.5 18.667969 C 18.078125 18.035156 18.066406 17.574219 18.167969 16.832031 C 18.421875 16.410156 18.515625 16.320312 19.011719 16.363281 Z M 19.011719 16.363281 "/>
<path style=" stroke:none;fill-rule:nonzero;fill:rgb(27.058825%,42.745098%,12.156863%);fill-opacity:1;" d="M 14.582031 27.28125 C 14.871094 27.308594 14.871094 27.308594 15.167969 27.332031 C 15.5 27.832031 15.5 27.832031 15.5 28.332031 C 15.390625 28.332031 15.28125 28.332031 15.167969 28.332031 C 15.125 28.4375 15.085938 28.539062 15.042969 28.644531 C 14.800781 29.058594 14.605469 29.160156 14.167969 29.332031 C 13.496094 28.4375 13.496094 28.4375 13.519531 27.957031 C 13.800781 27.398438 13.949219 27.335938 14.582031 27.28125 Z M 14.582031 27.28125 "/>
<path style=" stroke:none;fill-rule:nonzero;fill:rgb(53.725493%,34.509805%,20.392157%);fill-opacity:1;" d="M 10.167969 27.667969 C 10.277344 27.667969 10.386719 27.667969 10.5 27.667969 C 10.738281 27.976562 10.738281 27.976562 11 28.386719 C 11.128906 28.585938 11.128906 28.585938 11.261719 28.789062 C 11.339844 28.914062 11.417969 29.039062 11.5 29.167969 C 11.664062 29.414062 11.664062 29.414062 11.832031 29.667969 C 11.007812 29.667969 10.183594 29.667969 9.332031 29.667969 C 9.574219 28.941406 9.816406 28.335938 10.167969 27.667969 Z M 10.167969 27.667969 "/>
</g>
</svg>
